# xmcd
#
# Track frame offsets: 
#        150
#        13069
#        27764
#        49189
#        61399
#        78636
#        95379
#        116971
#        130232
#        148064
#        161672
#        192310
#        204432
#
# Disc length: 2928 seconds
#
# Revision: 0
# Processed by: cddbd v1.5.1PL2 Copyright (c) Steve Scherf et al.
# Submitted via: ExactAudioCopy v0.95b4
#
DISCID=b90b6e0d
DTITLE=Susan Tedeschi - Hope and Desire
DYEAR=1900
DGENRE=Blues
TTITLE0=You Got the Silver
TTITLE1=Soul of a Man 
TTITLE2=Lord Protect My Child
TTITLE3=Tired of My Tears
TTITLE4=Share Your Love with Me
TTITLE5=Evidence
TTITLE6=Sweet Forgiveness
TTITLE7=Security
TTITLE8=Loving You Is Sweeter Than Ever
TTITLE9=Magnificient Sanctuary Band
TTITLE10=Follow 
TTITLE11=The Danger Zone
TTITLE12=MR Charlie
EXTD=
EXTT0=
EXTT1=
EXTT2=
EXTT3=
EXTT4=
EXTT5=
EXTT6=
EXTT7=
EXTT8=
EXTT9=
EXTT10=
EXTT11=
EXTT12=
PLAYORDER=
